<?xml version="1.0" standalone="no"?>
<!DOCTYPE svg PUBLIC "-//W3C//DTD SVG 20010904//EN"
 "http://www.w3.org/TR/2001/REC-SVG-20010904/DTD/svg10.dtd">
<svg version="1.0" xmlns="http://www.w3.org/2000/svg"
 width="1000.000000pt" height="1000.000000pt" viewBox="0 0 1000.000000 1000.000000"
 preserveAspectRatio="xMidYMid meet">
<metadata>
Created by potrace 1.14, written by Peter Selinger 2001-2017
</metadata>
<g transform="translate(0.000000,1000.000000) scale(0.100000,-0.100000)"
fill="#000000" stroke="none">
<path d="M4748 9995 c-2 -1 -56 -6 -120 -9 -65 -4 -128 -9 -140 -11 -13 -2
-48 -6 -78 -9 -30 -4 -66 -8 -79 -11 -14 -2 -45 -7 -70 -10 -25 -3 -56 -7 -67
-9 -12 -3 -38 -7 -58 -10 -19 -3 -55 -10 -78 -15 -24 -6 -56 -12 -73 -15 -16
-3 -43 -8 -60 -11 -33 -7 -148 -35 -235 -58 -194 -52 -514 -165 -677 -238 -24
-10 -64 -28 -90 -40 -384 -170 -850 -470 -1188 -763 -396 -344 -736 -745
-1012 -1194 -126 -205 -263 -479 -357 -717 -27 -66 -52 -129 -57 -140 -25 -58
-95 -280 -134 -425 -85 -313 -139 -631 -163 -949 -14 -194 -7 -716 13 -866 3
-22 12 -96 20 -165 9 -69 22 -156 30 -195 8 -38 17 -86 20 -105 26 -150 106
-453 171 -641 168 -488 410 -950 710 -1355 88 -120 85 -115 170 -219 572 -694
1353 -1239 2204 -1536 206 -73 611 -178 780 -204 19 -3 46 -7 60 -10 32 -6 74
-11 185 -25 50 -6 104 -13 120 -15 173 -25 862 -25 1005 -1 14 3 52 7 85 10
33 4 71 8 85 10 14 2 48 7 75 11 28 4 109 18 180 32 72 14 141 27 155 30 99
18 456 119 590 168 472 169 969 437 1340 722 626 480 1118 1070 1457 1751 118
235 174 368 266 627 42 118 115 372 132 460 3 11 11 49 19 85 31 137 67 348
81 480 3 30 8 69 10 85 27 194 27 788 0 1010 -2 17 -6 57 -10 89 -3 32 -7 62
-9 65 -2 3 -7 36 -10 74 -4 37 -9 73 -11 80 -2 6 -7 29 -10 50 -10 70 -50 253
-89 412 -12 48 -34 122 -73 245 -401 1272 -1326 2353 -2523 2949 -202 100
-245 119 -435 194 -188 74 -529 180 -655 203 -13 3 -60 13 -105 23 -78 18
-139 31 -180 37 -11 1 -65 9 -120 18 -119 18 -172 25 -245 31 -30 3 -82 8
-115 11 -59 6 -631 14 -637 9z"/>
</g>
</svg>
